<svg width="186" height="186" viewBox="0 0 186 186" fill="none" xmlns="http://www.w3.org/2000/svg">
<path opacity="0.3" fill-rule="evenodd" clip-rule="evenodd" d="M21.7908 151.976C23.5368 154.059 25.389 156.084 27.3475 158.042C29.306 160.001 31.3305 161.853 33.4139 163.599L21.7908 151.976ZM48.0135 173.618L11.7717 137.376C10.0892 134.332 8.59138 131.214 7.27835 128.037L57.3529 178.111C54.1759 176.798 51.0573 175.301 48.0135 173.618ZM64.5681 180.746C66.784 181.452 69.0213 182.072 71.2747 182.607L2.78302 114.115C3.31761 116.368 3.93781 118.606 4.64364 120.822L64.5681 180.746ZM1.60954 108.361L77.0287 183.78C78.8993 184.1 80.7779 184.363 82.6616 184.567L0.822624 102.728C1.02715 104.612 1.28945 106.49 1.60954 108.361ZM0.416716 97.7418L87.648 184.973C89.3077 185.063 90.9693 185.109 92.631 185.11L0.279676 92.7588C0.280819 94.4204 0.326498 96.0821 0.416716 97.7418ZM0.38437 88.283L97.1068 185.005C98.6156 184.934 100.123 184.825 101.627 184.68L0.709727 83.7623C0.56449 85.2668 0.456036 86.7742 0.38437 88.283ZM1.19682 79.669L105.721 184.193C107.112 183.996 108.499 183.767 109.881 183.507L1.88264 75.5088C1.62233 76.8911 1.39372 78.2782 1.19682 79.669ZM2.67773 71.7234L113.666 182.712C114.959 182.412 116.247 182.084 117.528 181.728L3.66181 67.8615C3.30566 69.1429 2.97763 70.4306 2.67773 71.7234ZM4.71761 64.3368L121.053 180.672C122.261 180.284 123.463 179.87 124.657 179.431L5.95915 60.7323C5.51982 61.9268 5.10597 63.1286 4.71761 64.3368ZM7.24382 57.4365L127.953 178.146C129.086 177.679 130.211 177.189 131.328 176.675L8.7147 54.0614C8.20094 55.1785 7.71065 56.3038 7.24382 57.4365ZM10.206 50.9722L134.418 175.184C135.481 174.646 136.537 174.085 137.583 173.503L11.8864 47.8066C11.3044 48.8531 10.7442 49.9085 10.206 50.9722ZM13.5684 44.9081L140.482 171.821C141.481 171.217 142.471 170.592 143.452 169.946L15.444 41.9377C14.7982 42.9185 14.173 43.9088 13.5684 44.9081ZM17.3053 39.2186L146.171 168.084C147.109 167.417 148.038 166.73 148.957 166.024L19.3659 36.4332C18.6595 37.3516 17.9726 38.2803 17.3053 39.2186ZM21.3984 33.8852L151.505 163.991C152.384 163.264 153.254 162.518 154.112 161.753L23.6368 31.2776C22.8719 32.1361 22.1258 33.0055 21.3984 33.8852ZM25.8348 28.8951L156.495 159.555C157.015 159.058 157.531 158.554 158.042 158.042C158.34 157.744 158.636 157.445 158.929 157.144L28.2462 26.4605C27.9451 26.7537 27.6455 27.0493 27.3475 27.3474C26.836 27.8588 26.3318 28.3748 25.8348 28.8951ZM30.6067 24.2405L161.149 154.783C161.922 153.933 162.676 153.071 163.411 152.199L33.1906 21.9784C32.3187 22.7138 31.4572 23.4678 30.6067 24.2405ZM35.7159 19.9233L165.466 149.674C166.181 148.764 166.876 147.843 167.551 146.913L38.4769 17.8383C37.5466 18.5138 36.6261 19.2088 35.7159 19.9233ZM41.1725 15.9534L169.436 144.217C170.091 143.245 170.724 142.263 171.338 141.272L44.1174 14.0522C43.1265 14.6655 42.1446 15.2992 41.1725 15.9534ZM46.991 12.3453L173.044 138.399C173.635 137.361 174.204 136.315 174.752 135.26L50.1295 10.6378C49.0748 11.1853 48.0284 11.7545 46.991 12.3453ZM53.1921 9.11994L176.27 132.198C176.793 131.09 177.293 129.975 177.77 128.852L56.5378 7.61973C55.4148 8.09656 54.2993 8.59664 53.1921 9.11994ZM59.8046 6.30598L179.084 125.585C179.534 124.402 179.958 123.211 180.358 122.013L63.3766 5.03203C62.1791 5.43149 60.9881 5.85615 59.8046 6.30598ZM66.8687 3.94367L181.446 118.521C181.814 117.252 182.154 115.977 182.467 114.696L70.6938 2.92271C69.4131 3.23531 68.1377 3.57563 66.8687 3.94367ZM74.4416 2.09003L183.3 110.948C183.574 109.58 183.817 108.208 184.029 106.831L78.5584 1.36084C77.1819 1.57276 75.8093 1.81582 74.4416 2.09003ZM82.6066 0.828523L184.561 102.783C184.723 101.297 184.85 99.8073 184.94 98.316L87.0737 0.449625C85.5824 0.53995 84.0929 0.666251 82.6066 0.828523ZM91.4919 0.287348L185.102 93.8978C185.124 92.2603 185.101 90.6222 185.036 88.9856L96.4041 0.353572C94.7675 0.288242 93.1295 0.266163 91.4919 0.287348ZM101.311 0.67961L184.71 84.0791C184.538 82.2312 184.311 80.3875 184.028 78.5507L106.839 1.36201C105.002 1.07908 103.159 0.851615 101.311 0.67961ZM112.465 2.40736L182.982 72.9249C182.505 70.7369 181.948 68.5628 181.311 66.4074L118.982 4.07872C116.827 3.44141 114.653 2.8843 112.465 2.40736ZM125.917 6.4327L178.957 59.473C177.817 56.5079 176.519 53.5898 175.062 50.7316L134.658 10.3281C131.8 8.87121 128.882 7.57274 125.917 6.4327ZM146.326 17.4159L167.974 39.0633C165.04 34.9558 161.73 31.0346 158.042 27.3474C154.355 23.6602 150.434 20.3497 146.326 17.4159Z" fill="url(#paint0_linear_1_734)"/>
<defs>
<linearGradient id="paint0_linear_1_734" x1="27.3475" y1="27.3474" x2="160.335" y2="160.335" gradientUnits="userSpaceOnUse">
<stop stop-color="white"/>
<stop offset="1" stop-color="white" stop-opacity="0"/>
</linearGradient>
</defs>
</svg>
