<svg width="232" height="195" viewBox="0 0 232 195" fill="none" xmlns="http://www.w3.org/2000/svg">
<path opacity="0.3" fill-rule="evenodd" clip-rule="evenodd" d="M7.04818 209.043C9.44417 211.903 11.986 214.681 14.6737 217.369C17.3615 220.056 20.1398 222.598 22.9989 224.994L7.04818 209.043ZM43.0331 238.743L-6.70037 189.009C-9.00923 184.832 -11.0646 180.553 -12.8664 176.193L55.8492 244.909C51.4895 243.107 47.21 241.052 43.0331 238.743ZM65.7503 248.524C68.7911 249.493 71.8612 250.344 74.9535 251.077L-19.0351 157.089C-18.3015 160.181 -17.4504 163.251 -16.4819 166.292L65.7503 248.524ZM-20.6454 149.193L82.8494 252.688C85.4164 253.127 87.9943 253.487 90.5792 253.768L-21.7253 141.463C-21.4446 144.048 -21.0846 146.626 -20.6454 149.193ZM-22.2823 134.62L97.4218 254.325C99.6993 254.448 101.98 254.511 104.26 254.513L-22.4703 127.782C-22.4687 130.063 -22.4061 132.343 -22.2823 134.62ZM-22.3266 121.641L110.402 254.369C112.472 254.271 114.541 254.122 116.605 253.922L-21.8802 115.437C-22.0795 117.502 -22.2283 119.57 -22.3266 121.641ZM-21.2117 109.82L122.222 253.254C124.131 252.984 126.034 252.67 127.931 252.313L-20.2706 104.111C-20.6278 106.008 -20.9415 107.911 -21.2117 109.82ZM-19.1795 98.9165L133.126 251.222C134.9 250.81 136.667 250.36 138.425 249.871L-17.8291 93.617C-18.3179 95.3754 -18.768 97.1424 -19.1795 98.9165ZM-16.3803 88.7802L143.262 248.423C144.92 247.89 146.569 247.322 148.208 246.719L-14.6766 83.8338C-15.2794 85.473 -15.8474 87.1222 -16.3803 88.7802ZM-12.9137 79.3111L152.731 244.956C154.286 244.315 155.83 243.643 157.363 242.938L-10.8952 74.6796C-11.6002 76.2126 -12.2731 77.7568 -12.9137 79.3111ZM-8.84879 70.4404L161.602 240.891C163.062 240.152 164.51 239.384 165.946 238.585L-6.54288 66.0964C-7.34155 67.5325 -8.11019 68.9808 -8.84879 70.4404ZM-4.2347 62.1189L169.923 236.277C171.295 235.447 172.654 234.589 173.999 233.703L-1.66086 58.0428C-2.54712 59.3886 -3.40506 60.7476 -4.2347 62.1189ZM0.893347 54.3114L177.731 231.149C179.018 230.233 180.293 229.291 181.553 228.321L3.72106 50.4892C2.75158 51.7495 1.809 53.0238 0.893347 54.3114ZM6.51014 46.9926L185.05 225.532C186.257 224.534 187.45 223.51 188.628 222.46L9.58184 43.4144C8.53216 44.5925 7.50826 45.7855 6.51014 46.9926ZM12.5981 40.145L191.897 219.444C192.611 218.762 193.319 218.07 194.021 217.369C194.43 216.96 194.836 216.548 195.238 216.135L15.9071 36.8041C15.4939 37.2064 15.0828 37.612 14.6737 38.0211C13.9719 38.7229 13.28 39.4309 12.5981 40.145ZM19.1463 33.7576L198.285 212.896C199.345 211.729 200.38 210.547 201.389 209.35L22.6921 30.6535C21.4956 31.6625 20.3135 32.6972 19.1463 33.7576ZM26.1575 27.8333L204.209 205.885C205.189 204.636 206.143 203.373 207.07 202.096L29.9463 24.9721C28.6697 25.8991 27.4065 26.8528 26.1575 27.8333ZM33.6454 22.3856L209.657 198.397C210.554 197.063 211.424 195.716 212.266 194.356L37.6865 19.7766C36.3267 20.6182 34.9794 21.4878 33.6454 22.3856ZM41.6299 17.4344L214.608 190.412C215.419 188.989 216.2 187.553 216.951 186.106L45.9367 15.0912C44.4893 15.8425 43.0534 16.6235 41.6299 17.4344ZM50.1394 13.0083L219.034 181.903C219.752 180.384 220.438 178.853 221.093 177.312L54.7306 10.9496C53.1895 11.604 51.6588 12.2902 50.1394 13.0083ZM59.2134 9.14679L222.896 172.829C223.513 171.205 224.096 169.57 224.644 167.927L64.1152 7.3986C62.4719 7.94677 60.8376 8.5295 59.2134 9.14679ZM68.9073 5.90509L226.137 163.135C226.642 161.394 227.109 159.643 227.538 157.886L74.1563 4.50408C72.3988 4.93304 70.6487 5.40004 68.9073 5.90509ZM79.2993 3.36142L228.681 152.743C229.057 150.866 229.391 148.983 229.682 147.094L84.9486 2.36079C83.0597 2.65159 81.1761 2.98514 79.2993 3.36142ZM90.5038 1.63031L230.412 141.539C230.635 139.499 230.808 137.455 230.932 135.408L96.6338 1.11037C94.5874 1.23432 92.5434 1.40763 90.5038 1.63031ZM102.697 0.887691L231.155 129.346C231.184 127.098 231.153 124.851 231.064 122.605L109.438 0.978572C107.192 0.888918 104.944 0.858621 102.697 0.887691ZM116.171 1.42599L230.616 115.872C230.38 113.336 230.068 110.806 229.68 108.285L123.757 2.36243C121.236 1.97416 118.706 1.66202 116.171 1.42599ZM131.477 3.79692L228.245 100.565C227.591 97.5626 226.826 94.5793 225.952 91.6215L140.421 6.09048C137.463 5.21594 134.48 4.45142 131.477 3.79692ZM149.937 9.32078L222.722 82.1056C221.157 78.0367 219.375 74.0323 217.376 70.1102L161.932 14.6663C158.01 12.6671 154.006 10.8852 149.937 9.32078ZM177.944 24.3927L207.65 54.0981C203.624 48.4616 199.081 43.0808 194.021 38.0211C188.962 32.9614 183.581 28.4186 177.944 24.3927Z" fill="url(#paint0_linear_1_775)"/>
<defs>
<linearGradient id="paint0_linear_1_775" x1="14.6737" y1="38.0211" x2="197.168" y2="220.515" gradientUnits="userSpaceOnUse">
<stop stop-color="white"/>
<stop offset="1" stop-color="white" stop-opacity="0"/>
</linearGradient>
</defs>
</svg>
