<svg width="152" height="107" viewBox="0 0 152 107" fill="none" xmlns="http://www.w3.org/2000/svg">
<path d="M6.83781 84.5288C10.6553 96.2469 23.6174 106.713 44.3187 106.713C65.02 106.713 117.503 99.8515 122.241 73.9273C125.528 55.934 107.116 -6.33758 57.3216 6.80709C37.3956 12.0633 -0.0671616 63.3343 6.83781 84.5288Z" fill="#F7A55C"/>
<path opacity="0.8" d="M55.603 25.3322C24.2671 32.2347 0.121839 42.3626 0.0033343 60.5625C-0.043221 63.152 0.396938 65.9055 1.3746 68.8397C5.68731 81.754 48.8737 107 72.2656 107C95.6575 107 112.388 83.4776 126.507 57.5176C127.954 54.8543 129.025 50.9968 129 46.7864C129.059 31.8448 115.401 12.1594 55.603 25.3322Z" fill="url(#paint0_linear_1_930)"/>
<path d="M26.075 52.05H29.435L29.09 54H23.165L25.025 43.47H27.59L26.075 52.05ZM33.2384 44.76C32.8384 44.76 32.5184 44.655 32.2784 44.445C32.0484 44.225 31.9334 43.95 31.9334 43.62C31.9334 43.17 32.1084 42.785 32.4584 42.465C32.8084 42.145 33.2334 41.985 33.7334 41.985C34.1334 41.985 34.4484 42.095 34.6784 42.315C34.9084 42.525 35.0234 42.8 35.0234 43.14C35.0234 43.58 34.8484 43.96 34.4984 44.28C34.1484 44.6 33.7284 44.76 33.2384 44.76ZM34.3484 45.63L32.8784 54H30.3134L31.7834 45.63H34.3484ZM46.9173 45.54C47.8173 45.54 48.5173 45.78 49.0173 46.26C49.5273 46.73 49.7823 47.39 49.7823 48.24C49.7823 48.5 49.7523 48.79 49.6923 49.11L48.8223 54H46.2723L47.0823 49.455C47.1023 49.355 47.1123 49.22 47.1123 49.05C47.1123 48.63 46.9923 48.31 46.7523 48.09C46.5223 47.87 46.1973 47.76 45.7773 47.76C45.2773 47.76 44.8573 47.91 44.5173 48.21C44.1773 48.5 43.9623 48.915 43.8723 49.455L43.0623 54H40.5123L41.3223 49.455C41.3423 49.355 41.3523 49.22 41.3523 49.05C41.3523 48.63 41.2323 48.31 40.9923 48.09C40.7623 47.87 40.4373 47.76 40.0173 47.76C39.5173 47.76 39.0973 47.91 38.7573 48.21C38.4173 48.5 38.2023 48.915 38.1123 49.455V49.38L37.3023 54H34.7373L36.2073 45.63H38.7723L38.5923 46.695C38.9123 46.335 39.2973 46.055 39.7473 45.855C40.2073 45.645 40.7023 45.54 41.2323 45.54C41.8723 45.54 42.4123 45.675 42.8523 45.945C43.3023 46.215 43.6223 46.605 43.8123 47.115C44.1823 46.645 44.6423 46.265 45.1923 45.975C45.7423 45.685 46.3173 45.54 46.9173 45.54ZM53.5412 44.76C53.1412 44.76 52.8212 44.655 52.5812 44.445C52.3512 44.225 52.2362 43.95 52.2362 43.62C52.2362 43.17 52.4112 42.785 52.7612 42.465C53.1112 42.145 53.5362 41.985 54.0362 41.985C54.4362 41.985 54.7512 42.095 54.9812 42.315C55.2112 42.525 55.3262 42.8 55.3262 43.14C55.3262 43.58 55.1512 43.96 54.8012 44.28C54.4512 44.6 54.0312 44.76 53.5412 44.76ZM54.6512 45.63L53.1812 54H50.6162L52.0862 45.63H54.6512ZM58.52 51.12C58.51 51.17 58.505 51.235 58.505 51.315C58.505 51.495 58.555 51.625 58.655 51.705C58.765 51.785 58.94 51.825 59.18 51.825H60.095L59.705 54H58.4C56.72 54 55.88 53.295 55.88 51.885C55.88 51.675 55.905 51.41 55.955 51.09L56.555 47.76H55.535L55.91 45.63H56.93L57.29 43.59H59.855L59.495 45.63H61.175L60.8 47.76H59.12L58.52 51.12ZM66.3538 45.51C67.4338 45.51 68.2888 45.805 68.9188 46.395C69.5588 46.975 69.8788 47.77 69.8788 48.78C69.8788 49.11 69.8538 49.405 69.8038 49.665C69.7638 49.895 69.7038 50.14 69.6238 50.4H63.8188C63.8088 50.46 63.8038 50.555 63.8038 50.685C63.8038 51.125 63.9238 51.46 64.1638 51.69C64.4038 51.92 64.7238 52.035 65.1238 52.035C65.7638 52.035 66.2538 51.765 66.5938 51.225H69.3238C68.9638 52.075 68.3788 52.77 67.5688 53.31C66.7588 53.85 65.8488 54.12 64.8388 54.12C63.7588 54.12 62.8938 53.82 62.2438 53.22C61.6038 52.62 61.2838 51.805 61.2838 50.775C61.2838 50.465 61.3138 50.145 61.3738 49.815C61.5238 48.945 61.8338 48.185 62.3038 47.535C62.7738 46.885 63.3588 46.385 64.0588 46.035C64.7588 45.685 65.5238 45.51 66.3538 45.51ZM67.2838 49.095C67.3038 48.955 67.3138 48.86 67.3138 48.81C67.3138 48.41 67.1888 48.105 66.9388 47.895C66.6888 47.675 66.3588 47.565 65.9488 47.565C65.5088 47.565 65.1188 47.7 64.7788 47.97C64.4488 48.23 64.2088 48.605 64.0588 49.095H67.2838ZM70.6169 49.8C70.7669 48.94 71.0619 48.185 71.5019 47.535C71.9419 46.885 72.4719 46.385 73.0919 46.035C73.7119 45.685 74.3669 45.51 75.0569 45.51C75.6069 45.51 76.0869 45.625 76.4969 45.855C76.9169 46.085 77.2219 46.395 77.4119 46.785L78.1019 42.9H80.6669L78.7019 54H76.1369L76.3469 52.8C76.0269 53.2 75.6269 53.52 75.1469 53.76C74.6669 54 74.1319 54.12 73.5419 54.12C72.9519 54.12 72.4269 53.985 71.9669 53.715C71.5169 53.445 71.1619 53.06 70.9019 52.56C70.6519 52.06 70.5269 51.475 70.5269 50.805C70.5269 50.495 70.5569 50.16 70.6169 49.8ZM76.8869 49.815C76.9169 49.635 76.9319 49.47 76.9319 49.32C76.9319 48.83 76.7869 48.445 76.4969 48.165C76.2169 47.885 75.8569 47.745 75.4169 47.745C74.9069 47.745 74.4419 47.93 74.0219 48.3C73.6019 48.66 73.3369 49.16 73.2269 49.8C73.1969 49.98 73.1819 50.145 73.1819 50.295C73.1819 50.785 73.3219 51.175 73.6019 51.465C73.8919 51.745 74.2519 51.885 74.6819 51.885C75.1919 51.885 75.6569 51.7 76.0769 51.33C76.4969 50.96 76.7669 50.455 76.8869 49.815ZM93.4643 43.47L93.1193 45.495H90.3143L88.8143 54H86.2493L87.7493 45.495H84.9593L85.3193 43.47H93.4643ZM95.8166 44.76C95.4166 44.76 95.0966 44.655 94.8566 44.445C94.6266 44.225 94.5116 43.95 94.5116 43.62C94.5116 43.17 94.6866 42.785 95.0366 42.465C95.3866 42.145 95.8116 41.985 96.3116 41.985C96.7116 41.985 97.0266 42.095 97.2566 42.315C97.4866 42.525 97.6016 42.8 97.6016 43.14C97.6016 43.58 97.4266 43.96 97.0766 44.28C96.7266 44.6 96.3066 44.76 95.8166 44.76ZM96.9266 45.63L95.4566 54H92.8916L94.3616 45.63H96.9266ZM109.495 45.54C110.395 45.54 111.095 45.78 111.595 46.26C112.105 46.73 112.36 47.39 112.36 48.24C112.36 48.5 112.33 48.79 112.27 49.11L111.4 54H108.85L109.66 49.455C109.68 49.355 109.69 49.22 109.69 49.05C109.69 48.63 109.57 48.31 109.33 48.09C109.1 47.87 108.775 47.76 108.355 47.76C107.855 47.76 107.435 47.91 107.095 48.21C106.755 48.5 106.54 48.915 106.45 49.455L105.64 54H103.09L103.9 49.455C103.92 49.355 103.93 49.22 103.93 49.05C103.93 48.63 103.81 48.31 103.57 48.09C103.34 47.87 103.015 47.76 102.595 47.76C102.095 47.76 101.675 47.91 101.335 48.21C100.995 48.5 100.78 48.915 100.69 49.455V49.38L99.8804 54H97.3154L98.7854 45.63H101.35L101.17 46.695C101.49 46.335 101.875 46.055 102.325 45.855C102.785 45.645 103.28 45.54 103.81 45.54C104.45 45.54 104.99 45.675 105.43 45.945C105.88 46.215 106.2 46.605 106.39 47.115C106.76 46.645 107.22 46.265 107.77 45.975C108.32 45.685 108.895 45.54 109.495 45.54ZM118.414 45.51C119.494 45.51 120.349 45.805 120.979 46.395C121.619 46.975 121.939 47.77 121.939 48.78C121.939 49.11 121.914 49.405 121.864 49.665C121.824 49.895 121.764 50.14 121.684 50.4H115.879C115.869 50.46 115.864 50.555 115.864 50.685C115.864 51.125 115.984 51.46 116.224 51.69C116.464 51.92 116.784 52.035 117.184 52.035C117.824 52.035 118.314 51.765 118.654 51.225H121.384C121.024 52.075 120.439 52.77 119.629 53.31C118.819 53.85 117.909 54.12 116.899 54.12C115.819 54.12 114.954 53.82 114.304 53.22C113.664 52.62 113.344 51.805 113.344 50.775C113.344 50.465 113.374 50.145 113.434 49.815C113.584 48.945 113.894 48.185 114.364 47.535C114.834 46.885 115.419 46.385 116.119 46.035C116.819 45.685 117.584 45.51 118.414 45.51ZM119.344 49.095C119.364 48.955 119.374 48.86 119.374 48.81C119.374 48.41 119.249 48.105 118.999 47.895C118.749 47.675 118.419 47.565 118.009 47.565C117.569 47.565 117.179 47.7 116.839 47.97C116.509 48.23 116.269 48.605 116.119 49.095H119.344ZM28.97 66.47C29.94 66.47 30.775 66.645 31.475 66.995C32.185 67.335 32.725 67.82 33.095 68.45C33.475 69.07 33.665 69.8 33.665 70.64C33.665 70.93 33.63 71.295 33.56 71.735C33.38 72.765 32.99 73.68 32.39 74.48C31.8 75.28 31.045 75.9 30.125 76.34C29.215 76.78 28.21 77 27.11 77H23.165L25.025 66.47H28.97ZM27.335 74.81C28.305 74.81 29.11 74.54 29.75 74C30.39 73.46 30.79 72.705 30.95 71.735C31 71.435 31.025 71.185 31.025 70.985C31.025 70.245 30.8 69.675 30.35 69.275C29.9 68.865 29.26 68.66 28.43 68.66H27.2L26.12 74.81H27.335ZM36.9884 67.76C36.5884 67.76 36.2684 67.655 36.0284 67.445C35.7984 67.225 35.6834 66.95 35.6834 66.62C35.6834 66.17 35.8584 65.785 36.2084 65.465C36.5584 65.145 36.9834 64.985 37.4834 64.985C37.8834 64.985 38.1984 65.095 38.4284 65.315C38.6584 65.525 38.7734 65.8 38.7734 66.14C38.7734 66.58 38.5984 66.96 38.2484 67.28C37.8984 67.6 37.4784 67.76 36.9884 67.76ZM38.0984 68.63L36.6284 77H34.0634L35.5334 68.63H38.0984ZM41.9673 77.12C41.3073 77.12 40.7123 77.015 40.1823 76.805C39.6623 76.595 39.2523 76.305 38.9523 75.935C38.6523 75.555 38.5023 75.12 38.5023 74.63C38.5023 74.56 38.5123 74.435 38.5323 74.255H41.0073C40.9873 74.565 41.0773 74.815 41.2773 75.005C41.4873 75.185 41.7823 75.275 42.1623 75.275C42.4823 75.275 42.7473 75.215 42.9573 75.095C43.1673 74.975 43.2723 74.805 43.2723 74.585C43.2723 74.375 43.1573 74.21 42.9273 74.09C42.7073 73.96 42.3373 73.805 41.8173 73.625C41.2773 73.445 40.8223 73.27 40.4523 73.1C40.0923 72.92 39.7823 72.665 39.5223 72.335C39.2623 72.005 39.1323 71.59 39.1323 71.09C39.1323 70.6 39.2773 70.16 39.5673 69.77C39.8573 69.37 40.2623 69.06 40.7823 68.84C41.3123 68.62 41.9223 68.51 42.6123 68.51C43.3023 68.51 43.9023 68.625 44.4123 68.855C44.9223 69.075 45.3173 69.385 45.5973 69.785C45.8773 70.185 46.0173 70.635 46.0173 71.135L46.0023 71.36H43.6773C43.6973 71.06 43.6073 70.82 43.4073 70.64C43.2073 70.46 42.9223 70.37 42.5523 70.37C42.2623 70.37 42.0223 70.43 41.8323 70.55C41.6523 70.67 41.5623 70.835 41.5623 71.045C41.5623 71.265 41.6823 71.45 41.9223 71.6C42.1723 71.74 42.5573 71.9 43.0773 72.08C43.6173 72.26 44.0623 72.44 44.4123 72.62C44.7723 72.79 45.0773 73.035 45.3273 73.355C45.5873 73.665 45.7173 74.055 45.7173 74.525C45.7173 75.065 45.5523 75.53 45.2223 75.92C44.9023 76.31 44.4573 76.61 43.8873 76.82C43.3273 77.02 42.6873 77.12 41.9673 77.12ZM47.0915 72.815C47.2415 71.945 47.5515 71.185 48.0215 70.535C48.4915 69.885 49.0715 69.385 49.7615 69.035C50.4615 68.685 51.2215 68.51 52.0415 68.51C53.0915 68.51 53.9215 68.785 54.5315 69.335C55.1415 69.885 55.4665 70.66 55.5065 71.66H52.7765C52.6665 71.02 52.2765 70.7 51.6065 70.7C51.1365 70.7 50.7315 70.885 50.3915 71.255C50.0515 71.615 49.8215 72.135 49.7015 72.815C49.6615 73.025 49.6415 73.245 49.6415 73.475C49.6415 73.945 49.7515 74.305 49.9715 74.555C50.1915 74.805 50.4915 74.93 50.8715 74.93C51.5315 74.93 52.0265 74.61 52.3565 73.97H55.1015C54.7115 74.95 54.1115 75.72 53.3015 76.28C52.4915 76.84 51.5665 77.12 50.5265 77.12C49.4465 77.12 48.5865 76.825 47.9465 76.235C47.3165 75.635 47.0015 74.82 47.0015 73.79C47.0015 73.48 47.0315 73.155 47.0915 72.815ZM59.7586 77.12C59.0386 77.12 58.3986 76.975 57.8386 76.685C57.2786 76.395 56.8436 75.985 56.5336 75.455C56.2336 74.925 56.0836 74.31 56.0836 73.61C56.0836 72.66 56.3086 71.795 56.7586 71.015C57.2086 70.235 57.8286 69.625 58.6186 69.185C59.4086 68.735 60.2886 68.51 61.2586 68.51C61.9786 68.51 62.6186 68.66 63.1786 68.96C63.7486 69.25 64.1886 69.66 64.4986 70.19C64.8086 70.72 64.9636 71.335 64.9636 72.035C64.9636 72.995 64.7336 73.865 64.2736 74.645C63.8236 75.415 63.1986 76.02 62.3986 76.46C61.6086 76.9 60.7286 77.12 59.7586 77.12ZM60.1186 74.915C60.5386 74.915 60.9136 74.79 61.2436 74.54C61.5836 74.28 61.8436 73.95 62.0236 73.55C62.2136 73.14 62.3086 72.715 62.3086 72.275C62.3086 71.775 62.1736 71.39 61.9036 71.12C61.6336 70.85 61.2936 70.715 60.8836 70.715C60.4536 70.715 60.0736 70.845 59.7436 71.105C59.4236 71.355 59.1736 71.685 58.9936 72.095C58.8136 72.505 58.7236 72.935 58.7236 73.385C58.7236 73.875 58.8536 74.255 59.1136 74.525C59.3736 74.785 59.7086 74.915 60.1186 74.915ZM75.2193 68.63L73.7493 77H71.1843L71.3793 75.86C71.0493 76.23 70.6443 76.53 70.1643 76.76C69.6943 76.98 69.1893 77.09 68.6493 77.09C67.8093 77.09 67.1493 76.855 66.6693 76.385C66.1893 75.905 65.9493 75.24 65.9493 74.39C65.9493 74.07 65.9743 73.78 66.0243 73.52L66.8943 68.63H69.4443L68.6493 73.175C68.6193 73.335 68.6043 73.49 68.6043 73.64C68.6043 74.06 68.7193 74.385 68.9493 74.615C69.1893 74.835 69.5193 74.945 69.9393 74.945C70.4193 74.945 70.8243 74.805 71.1543 74.525C71.4943 74.235 71.7193 73.825 71.8293 73.295L72.6543 68.63H75.2193ZM82.1768 68.54C83.0168 68.54 83.6768 68.775 84.1568 69.245C84.6368 69.715 84.8768 70.37 84.8768 71.21C84.8768 71.49 84.8468 71.79 84.7868 72.11L83.9168 77H81.3668L82.1768 72.455C82.2068 72.285 82.2218 72.135 82.2218 72.005C82.2218 71.585 82.1018 71.26 81.8618 71.03C81.6318 70.8 81.3068 70.685 80.8868 70.685C80.3868 70.685 79.9668 70.84 79.6268 71.15C79.2868 71.46 79.0668 71.895 78.9668 72.455V72.38L78.1568 77H75.5918L77.0618 68.63H79.6268L79.4318 69.755C79.7618 69.385 80.1618 69.09 80.6318 68.87C81.1118 68.65 81.6268 68.54 82.1768 68.54ZM89.1792 74.12C89.1692 74.17 89.1642 74.235 89.1642 74.315C89.1642 74.495 89.2142 74.625 89.3142 74.705C89.4242 74.785 89.5992 74.825 89.8392 74.825H90.7542L90.3642 77H89.0592C87.3792 77 86.5392 76.295 86.5392 74.885C86.5392 74.675 86.5642 74.41 86.6142 74.09L87.2142 70.76H86.1942L86.5692 68.63H87.5892L87.9492 66.59H90.5142L90.1542 68.63H91.8342L91.4592 70.76H89.7792L89.1792 74.12Z" fill="white"/>
<defs>
<linearGradient id="paint0_linear_1_930" x1="4.89099" y1="35.7429" x2="140.23" y2="40.2276" gradientUnits="userSpaceOnUse">
<stop stop-color="#A4D470"/>
<stop offset="1" stop-color="#10AEBA"/>
</linearGradient>
</defs>
</svg>
